<svg xmlns="http://www.w3.org/2000/svg" width="128" height="128" viewBox="0 0 128 128" role="img" aria-label="Burn note sticker">
  <rect width="128" height="128" fill="#f5f0df"/>
  <rect x="32" y="18" width="64" height="84" fill="#fffef2" stroke="#111" stroke-width="4"/>
  <path d="M44 38h40M44 52h40M44 66h28" stroke="#111" stroke-width="5"/>
  <path d="M64 112c-15-12-10-27 0-38 2 12 16 14 12 28 8-6 10-14 8-24 18 18 14 44-20 44z" fill="#df5b3f" stroke="#111" stroke-width="4"/>
  <path d="M64 112c-7-8-4-16 2-24 1 9 9 11 8 19 4-3 5-7 5-12 7 9 5 24-15 17z" fill="#f4d247"/>
</svg>
